<svg width="56" height="56" viewBox="0 0 56 56" fill="none" xmlns="http://www.w3.org/2000/svg">
<rect width="56" height="56" rx="28" fill="#2054D2"/>
<path d="M36.9355 11.5649V11.6262V44.3738H45.2307V11.5649H36.9355Z" fill="white"/>
<path d="M45.1088 27.9692C45.1148 31.3784 44.1129 34.7128 42.23 37.5504C40.347 40.388 37.6676 42.6013 34.5308 43.9102C31.3939 45.219 27.9407 45.5646 24.6081 44.9032C21.2755 44.2418 18.2133 42.6032 15.809 40.1946C13.4047 37.7861 11.7664 34.7159 11.1014 31.3726C10.4365 28.0294 10.7747 24.5633 12.0733 21.413C13.372 18.2627 15.5726 15.5698 18.3969 13.6751C21.2211 11.7804 24.5419 10.769 27.939 10.769C32.4874 10.769 36.85 12.5802 40.0691 15.805C43.2882 19.0298 45.1007 23.4046 45.1088 27.9692V27.9692ZM19.1559 27.9692C19.1559 29.7125 19.671 31.4167 20.6361 32.8662C21.6012 34.3157 22.973 35.4454 24.5779 36.1126C26.1828 36.7797 27.9488 36.9543 29.6525 36.6142C31.3563 36.2741 32.9213 35.4346 34.1496 34.2019C35.3779 32.9692 36.2145 31.3986 36.5534 29.6888C36.8923 27.979 36.7183 26.2067 36.0535 24.5961C35.3888 22.9855 34.263 21.6089 32.8186 20.6404C31.3743 19.6718 29.6762 19.1549 27.939 19.1549C25.6096 19.1549 23.3756 20.0835 21.7284 21.7365C20.0813 23.3895 19.1559 25.6315 19.1559 27.9692V27.9692Z" fill="#E5B7A0"/>
</svg>
