<svg width="56" height="56" viewBox="0 0 56 56" fill="none" xmlns="http://www.w3.org/2000/svg">
<path d="M0 28C0 12.5361 12.5361 0 28 0C43.4639 0 56 12.5361 56 28C56 43.4639 43.4639 56 28 56C12.5361 56 0 43.4639 0 28Z" fill="#1C1C1C"/>
<path d="M24.2667 45.7322C27.3595 45.7322 29.8667 43.225 29.8667 40.1322V34.5322H24.2667C21.174 34.5322 18.6667 37.0394 18.6667 40.1322C18.6667 43.225 21.174 45.7322 24.2667 45.7322Z" fill="#0ACF83"/>
<path d="M18.6667 28.9323C18.6667 25.8395 21.174 23.3323 24.2667 23.3323H29.8667V34.5323H24.2667C21.174 34.5323 18.6667 32.0251 18.6667 28.9323Z" fill="#A259FF"/>
<path d="M18.6667 17.7323C18.6667 14.6395 21.174 12.1323 24.2667 12.1323H29.8667V23.3323H24.2667C21.174 23.3323 18.6667 20.8251 18.6667 17.7323Z" fill="#F24E1E"/>
<path d="M29.8667 12.1323H35.4667C38.5595 12.1323 41.0667 14.6395 41.0667 17.7323C41.0667 20.8251 38.5595 23.3323 35.4667 23.3323H29.8667V12.1323Z" fill="#FF7262"/>
<path d="M41.0667 28.9323C41.0667 32.0251 38.5595 34.5323 35.4667 34.5323C32.3739 34.5323 29.8667 32.0251 29.8667 28.9323C29.8667 25.8395 32.3739 23.3323 35.4667 23.3323C38.5595 23.3323 41.0667 25.8395 41.0667 28.9323Z" fill="#1ABCFE"/>
</svg>
