<svg width="56" height="56" viewBox="0 0 56 56" fill="none" xmlns="http://www.w3.org/2000/svg">
<path fill-rule="evenodd" clip-rule="evenodd" d="M47.528 8.47274C42.2986 3.27652 35.8116 0.661865 28.0008 0.661865C20.223 0.661865 13.7029 3.27652 8.50667 8.47274C3.27736 13.7021 0.695801 20.1891 0.695801 27.9999C0.695801 35.7446 3.31046 42.2316 8.50667 47.494C13.736 52.7233 20.223 55.338 28.0008 55.338C35.7785 55.338 42.2986 52.7233 47.528 47.5271C52.7573 42.2978 55.3388 35.8108 55.3388 27.9999C55.3388 20.1891 52.7242 13.669 47.528 8.47274V8.47274Z" fill="#F9A024"/>
<path fill-rule="evenodd" clip-rule="evenodd" d="M28 56C20.0567 56 13.3381 53.2861 8.00946 47.9574C2.68085 42.6288 0 35.9102 0 28C0 20.0567 2.71395 13.3381 8.00946 8.00946C13.3381 2.68085 20.0567 0 28 0C35.9433 0 42.6619 2.71395 47.9905 8.00946C53.3192 13.3381 56 20.0567 56 28C56 35.9433 53.2861 42.6619 47.9905 47.9905C42.6619 53.2861 35.9433 56 28 56V56ZM28.0004 1.3238C20.4543 1.3238 14.0335 3.90536 8.96965 8.93609C3.90582 13.9999 1.35736 20.3876 1.35736 27.9668C1.35736 35.5129 3.93892 41.9006 8.96965 46.9645C14.0335 52.0283 20.4212 54.6098 28.0004 54.6098C35.5796 54.6098 41.9673 52.0283 47.0311 46.9975C52.095 41.9337 54.6434 35.546 54.6434 27.9668C54.6434 20.3876 52.0619 13.9999 47.0311 8.93609C41.9673 3.87226 35.5796 1.3238 28.0004 1.3238V1.3238Z" fill="#ED017F"/>
<path fill-rule="evenodd" clip-rule="evenodd" d="M13.8347 18.7328C14.8607 17.8723 16.0191 17.4751 17.4091 17.442C18.7992 17.4089 20.2224 17.6737 21.6125 18.2364C23.0025 18.7659 24.3926 19.5933 25.7165 20.5201L26.3453 20.0236C25.5179 18.4349 24.2271 17.1442 22.7046 16.1513C21.1491 15.1584 19.2626 14.5957 17.3429 14.5957C16.4162 14.5957 15.3571 14.7612 14.3973 15.1914C13.4375 15.6217 12.6101 16.2836 11.9812 17.0449C11.3524 17.8061 10.9552 18.6997 10.6905 19.5933C10.4588 20.487 10.3264 21.3806 10.4257 22.3073L11.22 22.4066C11.9481 20.9172 12.8087 19.5933 13.8347 18.7328V18.7328Z" fill="#ED017F"/>
<path fill-rule="evenodd" clip-rule="evenodd" d="M31.575 16.1844C32.7996 15.3238 34.1235 14.7281 35.4805 14.4633C36.8705 14.1655 38.062 14.2978 39.2535 14.8936C40.445 15.4893 41.5703 16.6146 42.5963 17.8723L43.3575 17.6075C43.2582 16.6808 42.9273 15.8534 42.497 15.026C42.0337 14.2316 41.4379 13.4373 40.6436 12.8416C39.8493 12.2127 38.8895 11.7825 37.8634 11.5839C36.8374 11.3853 35.7783 11.4515 34.8847 11.6832C32.9982 12.1134 31.3103 13.1064 30.0195 14.4302C28.7618 15.7541 27.802 17.3097 27.3386 19.0307L28.0668 19.3617C29.1921 18.104 30.3504 17.0118 31.575 16.1844V16.1844Z" fill="#ED017F"/>
<path fill-rule="evenodd" clip-rule="evenodd" d="M44.1513 34.52C43.5887 35.9101 42.7282 37.2009 41.7683 38.26C41.2719 38.8226 40.7423 39.3191 40.1797 39.7493C39.617 40.2127 39.0213 40.643 38.4256 41.007C35.9433 42.4964 33.0969 43.3569 30.1513 43.8203C27.2719 44.2836 24.2932 44.2505 21.4137 43.5886C19.9906 43.2576 18.5674 42.7943 17.2104 42.1323C15.8534 41.5035 14.5296 40.676 13.3712 39.7162L12.9409 40.0803C13.8345 41.4704 15.0591 42.5626 16.383 43.5555C17.7069 44.5153 19.1962 45.2765 20.7849 45.8392C23.9291 46.9645 27.3381 47.163 30.6147 46.6666C33.8251 46.1701 37.1017 45.0779 39.7825 43.0259C42.4634 41.007 44.4823 37.9621 44.714 34.6524L44.1513 34.52V34.52Z" fill="#ED017F"/>
<path fill-rule="evenodd" clip-rule="evenodd" d="M27.438 25.7163L28.4971 35.4468L29.0597 35.3806L28.0006 25.6501L27.438 25.7163Z" fill="#ED017F"/>
</svg>
