<svg width="56" height="56" viewBox="0 0 56 56" fill="none" xmlns="http://www.w3.org/2000/svg">
<path d="M0 28C0 12.5361 12.5361 0 28 0C43.4639 0 56 12.5361 56 28C56 43.4639 43.4639 56 28 56C12.5361 56 0 43.4639 0 28Z" fill="#1C1C1C"/>
<path d="M28.28 41.5605C28.9741 41.5587 29.6666 41.5016 30.3517 41.3905L31.4675 44.6946C31.6701 45.3045 32.0526 45.8388 32.5646 46.2275C33.0763 46.6162 33.6936 46.8411 34.3358 46.8726H34.4899C35.1058 46.8726 35.7087 46.6936 36.2256 46.3583C36.7421 46.0226 37.1504 45.5442 37.401 44.9813L38.4344 42.6404C38.8363 41.7301 39.4044 40.9028 40.1097 40.2009L40.2311 40.08C40.9273 39.3872 41.745 38.8285 42.6435 38.4318L45.0026 37.3904C45.7837 37.035 46.388 36.3796 46.6797 35.5721C46.9713 34.7651 46.925 33.8744 46.5511 33.1017C46.1776 32.3295 45.5081 31.74 44.6944 31.4676L41.3903 30.3519C41.5014 29.6667 41.5585 28.9743 41.5604 28.2802C41.5604 24.7582 40.1612 21.3804 37.6708 18.8896C35.18 16.3992 31.8022 15 28.2802 15C24.7582 15 21.3804 16.3992 18.8896 18.8896C16.3992 21.3804 15 24.7582 15 28.2802C15 31.8022 16.3992 35.18 18.8896 37.6708C21.3804 40.1612 24.758 41.5605 28.28 41.5605ZM39.4208 36.3734C38.0625 36.9768 36.9764 38.0628 36.3731 39.4212L34.4791 43.6852L29.8737 29.8738L43.685 34.4793L39.4208 36.3734ZM28.28 18.1873C30.9568 18.1873 33.5239 19.2504 35.4166 21.1435C37.3097 23.0362 38.3728 25.6034 38.3728 28.2801C38.3713 28.6351 38.3502 28.9897 38.309 29.3424L30.8723 26.8668C30.1198 26.6156 29.3005 26.6548 28.575 26.9754C27.8494 27.2962 27.2699 27.8761 26.949 28.6017C26.6281 29.3273 26.5896 30.1465 26.8404 30.8991L29.316 38.3358C28.9714 38.3669 28.6257 38.3795 28.28 38.3728C24.6742 38.3728 21.3423 36.4494 19.5393 33.3265C17.7362 30.2039 17.7362 26.3563 19.5393 23.2335C21.3423 20.1106 24.6743 18.1873 28.28 18.1873Z" fill="white"/>
</svg>
