<svg width="24" height="24" viewBox="0 0 24 24" fill="none" xmlns="http://www.w3.org/2000/svg">
<path d="M7.077 7.92037L7.93054 7.06683L3.68794 2.82423L2.8344 3.67777L7.077 7.92037Z" fill="#E4E4E4"/>
<path d="M12.6036 0H11.3965V6H12.6036V0Z" fill="#E4E4E4"/>
<path d="M23.9645 11.3964H17.9645V12.6035H23.9645V11.3964Z" fill="#E4E4E4"/>
<path d="M16.0979 7.12687L16.9514 7.98041L21.194 3.73781L20.3405 2.88427L16.0979 7.12687Z" fill="#E4E4E4"/>
<path d="M6 11.3964H0V12.6035H6V11.3964Z" fill="#E4E4E4"/>
<path d="M12.6036 18H11.3965V24H12.6036V18Z" fill="#E4E4E4"/>
<path d="M7.89895 16.9002L7.04541 16.0466L2.80281 20.2892L3.65635 21.1428L7.89895 16.9002Z" fill="#E4E4E4"/>
<path d="M16.9389 16.058L16.0853 16.9116L20.3279 21.1542L21.1815 20.3006L16.9389 16.058Z" fill="#E4E4E4"/>
<path d="M11.9644 16.5088C14.4546 16.5088 16.4733 14.4901 16.4733 12C16.4733 9.50978 14.4546 7.49109 11.9644 7.49109C9.47426 7.49109 7.45557 9.50978 7.45557 12C7.45557 14.4901 9.47426 16.5088 11.9644 16.5088Z" fill="#E4E4E4"/>
</svg>
