<svg width="930" height="340" viewBox="0 0 930 340" fill="none" xmlns="http://www.w3.org/2000/svg">
<rect width="930" height="340" fill="#2054D2"/>
<g clip-path="url(#clip0_3977_7752)">
<path d="M409.208 145.98V146.059V188.017H419.874V145.98H409.208Z" fill="#FFFCF4"/>
<path d="M542.847 145.98V146.059V188.017H553.513V145.98H542.847Z" fill="#FFFCF4"/>
<path d="M468.616 171.391H436.815C438.226 176.685 442.187 179.234 448.579 179.234C450.376 179.35 452.174 179.03 453.82 178.299C455.466 177.568 456.91 176.449 458.029 175.038L466.813 180.096C464.791 183.038 462.052 185.415 458.853 187C455.655 188.586 452.105 189.327 448.539 189.154C445.46 189.297 442.384 188.81 439.498 187.725C436.613 186.639 433.979 184.978 431.756 182.841C429.664 180.755 428.022 178.263 426.929 175.518C425.837 172.774 425.317 169.834 425.404 166.882C425.36 163.982 425.892 161.103 426.969 158.41C428.046 155.718 429.647 153.266 431.678 151.196C433.752 149.064 436.253 147.393 439.016 146.292C441.779 145.19 444.744 144.684 447.716 144.805C450.571 144.694 453.415 145.209 456.05 146.313C458.685 147.417 461.046 149.084 462.97 151.196C467.02 155.476 469.206 161.188 469.048 167.078C469.004 168.524 468.86 169.965 468.616 171.391V171.391ZM436.658 162.96H458.147C457.747 160.51 456.467 158.289 454.547 156.715C452.626 155.141 450.197 154.322 447.716 154.412C445.113 154.304 442.552 155.093 440.462 156.647C438.484 158.232 437.135 160.471 436.658 162.96Z" fill="#FFFCF4"/>
<path d="M485.4 188.018H474.459V126.414H485.4V188.018Z" fill="#FFFCF4"/>
<path d="M503.594 188.018H492.693V126.414H503.594V188.018Z" fill="#FFFCF4"/>
<path d="M419.718 166.999C419.726 171.367 418.437 175.639 416.016 179.275C413.595 182.91 410.15 185.746 406.117 187.423C402.083 189.1 397.643 189.543 393.358 188.695C389.073 187.848 385.135 185.748 382.044 182.662C378.953 179.577 376.846 175.643 375.991 171.359C375.136 167.076 375.571 162.635 377.241 158.598C378.911 154.562 381.74 151.112 385.372 148.684C389.003 146.257 393.273 144.961 397.641 144.961C403.489 144.961 409.099 147.281 413.238 151.413C417.377 155.545 419.707 161.15 419.718 166.999V166.999ZM386.348 166.999C386.348 169.232 387.01 171.416 388.251 173.273C389.492 175.13 391.255 176.578 393.319 177.432C395.383 178.287 397.653 178.511 399.844 178.075C402.035 177.639 404.047 176.564 405.626 174.984C407.206 173.405 408.281 171.393 408.717 169.202C409.153 167.011 408.929 164.74 408.075 162.677C407.22 160.613 405.772 158.849 403.915 157.609C402.058 156.368 399.874 155.705 397.641 155.705C394.646 155.705 391.773 156.895 389.655 159.013C387.537 161.131 386.348 164.003 386.348 166.999V166.999Z" fill="#D8A28F"/>
<path d="M553.355 166.999C553.363 171.367 552.075 175.639 549.654 179.275C547.233 182.91 543.788 185.746 539.754 187.423C535.721 189.1 531.281 189.543 526.996 188.695C522.711 187.848 518.773 185.748 515.682 182.662C512.59 179.577 510.484 175.643 509.629 171.359C508.774 167.076 509.209 162.635 510.878 158.598C512.548 154.562 515.378 151.112 519.009 148.684C522.641 146.257 526.91 144.961 531.279 144.961C537.127 144.961 542.736 147.281 546.875 151.413C551.015 155.545 553.345 161.15 553.355 166.999V166.999ZM519.985 166.999C519.985 169.232 520.648 171.416 521.888 173.273C523.129 175.13 524.893 176.578 526.957 177.432C529.02 178.287 531.291 178.511 533.482 178.075C535.672 177.639 537.685 176.564 539.264 174.984C540.844 173.405 541.919 171.393 542.355 169.202C542.791 167.011 542.567 164.74 541.712 162.677C540.857 160.613 539.41 158.849 537.553 157.609C535.696 156.368 533.512 155.705 531.279 155.705C528.287 155.716 525.42 156.909 523.304 159.024C521.189 161.14 519.996 164.007 519.985 166.999V166.999Z" fill="#D8A28F"/>
<rect x="428.948" y="234.453" width="71.1795" height="10.1685" fill="#FFFCF4"/>
<rect x="530.633" y="203.947" width="10.1685" height="10.1685" fill="#FFFCF4"/>
<rect width="10.1685" height="10.1685" transform="matrix(-1 0 0 1 398.443 203.947)" fill="#FFFCF4"/>
<rect x="520.465" y="214.115" width="10.1685" height="10.1685" fill="#FFFCF4"/>
<rect width="10.1685" height="10.1685" transform="matrix(-1 0 0 1 408.611 214.115)" fill="#FFFCF4"/>
<rect x="510.296" y="224.285" width="10.1685" height="10.1685" fill="#FFFCF4"/>
<rect width="10.1685" height="10.1685" transform="matrix(-1 0 0 1 418.78 224.285)" fill="#FFFCF4"/>
<rect x="500.128" y="229.369" width="10.1685" height="10.1685" fill="#FFFCF4"/>
<rect width="10.1685" height="10.1685" transform="matrix(-1 0 0 1 428.948 229.369)" fill="#FFFCF4"/>
</g>
<defs>
<clipPath id="clip0_3977_7752">
<rect width="427.077" height="264.381" fill="white" transform="translate(251 26)"/>
</clipPath>
</defs>
</svg>
